<svg width="30" height="30" viewBox="0 0 30 30" fill="none" xmlns="http://www.w3.org/2000/svg">
<path d="M26.5742 20.8056L19.8056 14.037L21.7203 12.1223L17.147 7.54901L15.2323 9.46371L8.4638 2.69519L2.69531 8.46368L9.46384 15.2322L3.65876 21.0373V25.6106H8.23209L14.0372 19.8055L20.8057 26.5741L26.5742 20.8056V20.8056ZM11.1956 13.5004L6.14665 8.46368L8.4638 6.14653L10.0126 7.69536L8.56137 9.14663L10.2809 10.8662L11.7322 9.41493L13.5006 11.1833L11.1956 13.5004V13.5004ZM15.7689 18.0738L18.0861 15.7566L19.8544 17.525L18.4032 18.9762L20.1227 20.6958L21.574 19.2445L23.1228 20.7934L20.8057 23.1105L15.7689 18.0738V18.0738ZM18.4556 6.24775L21.5508 3.1513L26.1217 7.72219L23.0265 10.8186L18.4556 6.24775Z" fill="#F9995D"/>
</svg>
