<svg width="30" height="30" viewBox="0 0 30 30" fill="none" xmlns="http://www.w3.org/2000/svg">
<path d="M25.6107 9.75639C26.2576 9.75639 26.878 10.0134 27.3354 10.4708C27.7928 10.9282 28.0498 11.5486 28.0498 12.1955V17.0737C28.0498 17.7206 27.7928 18.341 27.3354 18.7984C26.878 19.2558 26.2576 19.5128 25.6107 19.5128H24.3155C24.0182 21.8706 22.8707 24.0388 21.0883 25.6106C19.3059 27.1824 17.0111 28.0497 14.6347 28.0497V25.6106C16.5754 25.6106 18.4366 24.8397 19.8088 23.4674C21.1811 22.0951 21.952 20.2339 21.952 18.2933V10.9759C21.952 9.03527 21.1811 7.17408 19.8088 5.80181C18.4366 4.42955 16.5754 3.65862 14.6347 3.65862C12.694 3.65862 10.8328 4.42955 9.46057 5.80181C8.0883 7.17408 7.31737 9.03527 7.31737 10.9759V19.5128H3.65871C3.01182 19.5128 2.39142 19.2558 1.934 18.7984C1.47658 18.341 1.2196 17.7206 1.2196 17.0737V12.1955C1.2196 11.5486 1.47658 10.9282 1.934 10.4708C2.39142 10.0134 3.01182 9.75639 3.65871 9.75639H4.95388C5.25149 7.39886 6.39915 5.23096 8.18152 3.65944C9.96389 2.08793 12.2585 1.22083 14.6347 1.22083C17.0109 1.22083 19.3055 2.08793 21.0879 3.65944C22.8702 5.23096 24.0179 7.39886 24.3155 9.75639H25.6107ZM9.46379 19.2506L10.7565 17.1823C11.9188 17.9104 13.2631 18.2955 14.6347 18.2933C16.0062 18.2955 17.3505 17.9104 18.5129 17.1823L19.8056 19.2506C18.2559 20.2216 16.4635 20.7352 14.6347 20.7324C12.8059 20.7352 11.0135 20.2216 9.46379 19.2506Z" fill="#F9995D"/>
</svg>
