<svg width="30" height="30" viewBox="0 0 30 30" fill="none" xmlns="http://www.w3.org/2000/svg">
<g clip-path="url(#clip0_123_361)">
<rect y="12.1956" width="17.0738" height="17.0738" fill="#7595FD"/>
<path d="M23.1605 2.43909H10.9882C9.63325 2.43909 8.53687 3.53547 8.53687 4.89039V11.765L2.80253 17.4262C2.63071 17.5961 2.51325 17.8133 2.46505 18.0501C2.41686 18.2869 2.4401 18.5326 2.53183 18.7562C2.62355 18.9798 2.77963 19.1711 2.98025 19.3058C3.18088 19.4405 3.417 19.5126 3.65865 19.5128V25.6106C3.65865 25.9341 3.78714 26.2443 4.01585 26.473C4.24456 26.7017 4.55476 26.8302 4.87821 26.8302H24.3911C24.7145 26.8302 25.0247 26.7017 25.2534 26.473C25.4821 26.2443 25.6106 25.9341 25.6106 25.6106V4.88917C25.6106 3.53547 24.5155 2.43909 23.1605 2.43909ZM13.32 18.4287V24.3911H6.09776V17.6006L9.74057 14.0041L13.32 17.6664V18.4287V18.4287ZM15.8542 10.976H13.4151V8.53686H15.8542V10.976ZM20.7324 20.7324H18.2933V18.2933H20.7324V20.7324ZM20.7324 15.8542H18.2933V13.4151H20.7324V15.8542ZM20.7324 10.976H18.2933V8.53686H20.7324V10.976Z" fill="#292E3D"/>
<path d="M8.53687 18.2933H10.976V20.7324H8.53687V18.2933Z" fill="#14171F"/>
</g>
<defs>
<clipPath id="clip0_123_361">
<rect width="29.2693" height="29.2693" fill="white"/>
</clipPath>
</defs>
</svg>
