<svg width="30" height="30" viewBox="0 0 30 30" fill="none" xmlns="http://www.w3.org/2000/svg">
<g clip-path="url(#clip0_123_363)">
<rect y="12.1956" width="17.0738" height="17.0738" fill="#7595FD"/>
<path d="M23.7813 3.65864C22.9729 3.65929 22.1978 3.98072 21.6262 4.55235C21.0545 5.12399 20.7331 5.89911 20.7324 6.70753C20.7324 7.14291 20.8276 7.55634 20.9934 7.93318L18.6092 10.615C17.7993 10.0559 16.8384 9.75646 15.8542 9.75641C14.9518 9.75641 14.1176 10.0198 13.392 10.4467L10.6187 7.67463L10.5906 7.70268C10.8297 7.2173 10.976 6.67704 10.976 6.09775C10.976 5.37413 10.7614 4.66677 10.3594 4.06511C9.9574 3.46344 9.386 2.9945 8.71746 2.71759C8.04893 2.44067 7.3133 2.36822 6.60359 2.50939C5.89387 2.65056 5.24196 2.99901 4.73029 3.51069C4.21862 4.02236 3.87016 4.67427 3.72899 5.38398C3.58782 6.09369 3.66028 6.82933 3.93719 7.49786C4.21411 8.16639 4.68305 8.7378 5.28471 9.13981C5.88637 9.54183 6.59374 9.75641 7.31735 9.75641C7.89664 9.75641 8.43569 9.61006 8.92229 9.37103L8.89424 9.39908L11.6675 12.1711C11.2195 12.9151 10.9806 13.7662 10.976 14.6346C10.976 15.8505 11.4394 16.9506 12.1773 17.8067L9.03449 20.9483C8.68224 20.8073 8.30654 20.734 7.92713 20.7324C6.24659 20.7324 4.87825 22.0995 4.87825 23.7813C4.87825 25.463 6.24659 26.8302 7.92713 26.8302C9.60768 26.8302 10.976 25.463 10.976 23.7813C10.976 23.3898 10.8955 23.0178 10.7602 22.6727L14.2212 19.2116C14.7347 19.3945 15.2786 19.5128 15.8542 19.5128C18.5446 19.5128 20.7324 17.325 20.7324 14.6346C20.7324 13.859 20.5337 13.1358 20.2105 12.4833L22.7923 9.57714C23.1045 9.68446 23.4338 9.75641 23.7813 9.75641C25.4631 9.75641 26.8302 8.38929 26.8302 6.70753C26.8302 5.02576 25.4631 3.65864 23.7813 3.65864ZM15.8542 17.0737C14.5091 17.0737 13.4151 15.9798 13.4151 14.6346C13.4151 13.2895 14.5091 12.1955 15.8542 12.1955C17.1994 12.1955 18.2933 13.2895 18.2933 14.6346C18.2933 15.9798 17.1994 17.0737 15.8542 17.0737Z" fill="white"/>
</g>
<defs>
<clipPath id="clip0_123_363">
<rect width="29.2693" height="29.2693" fill="white"/>
</clipPath>
</defs>
</svg>
