<svg width="30" height="30" viewBox="0 0 30 30" fill="none" xmlns="http://www.w3.org/2000/svg">
<g clip-path="url(#clip0_123_366)">
<rect y="12.1956" width="17.0738" height="17.0738" fill="#7595FD"/>
<path d="M7.75635 22.9032L8.06124 25.6107L10.0369 23.7325L13.4151 14.4639C12.5858 14.2566 11.854 13.842 11.2565 13.2688L7.75635 22.9032ZM18.0128 13.2688C17.4152 13.842 16.6713 14.2566 15.8542 14.4639L19.2323 23.7325L21.208 25.6107L21.5251 22.9032L18.0128 13.2688V13.2688ZM18.2201 10.4882C18.586 8.58569 17.4884 6.9027 15.8542 6.31732V4.87824C15.8542 4.20749 15.3054 3.65869 14.6346 3.65869C13.9639 3.65869 13.4151 4.20749 13.4151 4.87824V6.31732C12.0004 6.82953 10.976 8.17104 10.976 9.75646C10.976 12.0004 13.0004 13.781 15.3176 13.3541C16.7567 13.0858 17.9396 11.9273 18.2201 10.4882V10.4882ZM14.6346 10.976C13.9639 10.976 13.4151 10.4272 13.4151 9.75646C13.4151 9.0857 13.9639 8.53691 14.6346 8.53691C15.3054 8.53691 15.8542 9.0857 15.8542 9.75646C15.8542 10.4272 15.3054 10.976 14.6346 10.976Z" fill="#292E3D"/>
</g>
<defs>
<clipPath id="clip0_123_366">
<rect width="29.2693" height="29.2693" fill="white"/>
</clipPath>
</defs>
</svg>
