<svg width="30" height="30" viewBox="0 0 30 30" fill="none" xmlns="http://www.w3.org/2000/svg">
<g clip-path="url(#clip0_123_364)">
<rect y="12.1956" width="17.0738" height="17.0738" fill="#7595FD"/>
<path d="M13.4152 7.31728H17.0738L21.0862 3.29275C21.1995 3.17844 21.3344 3.08771 21.483 3.0258C21.6317 2.96388 21.7911 2.93201 21.9521 2.93201C22.113 2.93201 22.2724 2.96388 22.4211 3.0258C22.5697 3.08771 22.7046 3.17844 22.8179 3.29275L25.9644 6.45139C26.1915 6.67989 26.319 6.98899 26.319 7.31118C26.319 7.63337 26.1915 7.94246 25.9644 8.17096L23.1716 10.9759H13.4152V13.415C13.4152 13.7385 13.2867 14.0487 13.058 14.2774C12.8293 14.5061 12.5191 14.6346 12.1956 14.6346C11.8722 14.6346 11.562 14.5061 11.3333 14.2774C11.1046 14.0487 10.9761 13.7385 10.9761 13.415V9.75638C10.9761 9.10949 11.233 8.48909 11.6905 8.03167C12.1479 7.57425 12.7683 7.31728 13.4152 7.31728ZM6.09785 13.415V18.2933L3.30508 21.086C3.07793 21.3145 2.95044 21.6236 2.95044 21.9458C2.95044 22.268 3.07793 22.5771 3.30508 22.8056L6.45152 25.9643C6.5649 26.0786 6.69978 26.1693 6.8484 26.2312C6.99701 26.2931 7.15641 26.325 7.31741 26.325C7.4784 26.325 7.63781 26.2931 7.78642 26.2312C7.93503 26.1693 8.06992 26.0786 8.18329 25.9643L13.4152 20.7324H18.2934C18.6168 20.7324 18.927 20.6039 19.1557 20.3752C19.3845 20.1465 19.5129 19.8363 19.5129 19.5128V18.2933H20.7325C21.0559 18.2933 21.3661 18.1648 21.5949 17.9361C21.8236 17.7073 21.9521 17.3972 21.9521 17.0737V15.8542H23.1716C23.4951 15.8542 23.8053 15.7257 24.034 15.497C24.2627 15.2682 24.3912 14.958 24.3912 14.6346V13.415H15.8543V14.6346C15.8543 15.2815 15.5973 15.9019 15.1399 16.3593C14.6825 16.8167 14.0621 17.0737 13.4152 17.0737H10.9761C10.3292 17.0737 9.70878 16.8167 9.25136 16.3593C8.79394 15.9019 8.53696 15.2815 8.53696 14.6346V10.9759L6.09785 13.415Z" fill="#292E3D"/>
</g>
<defs>
<clipPath id="clip0_123_364">
<rect width="29.2693" height="29.2693" fill="white"/>
</clipPath>
</defs>
</svg>
