<svg width="30" height="30" viewBox="0 0 30 30" fill="none" xmlns="http://www.w3.org/2000/svg">
<g clip-path="url(#clip0_123_392)">
<path d="M14.6347 0.585388C6.87542 0.585388 0.585449 6.87536 0.585449 14.6346C0.585449 22.3939 6.87542 28.6839 14.6347 28.6839C22.394 28.6839 28.684 22.3939 28.684 14.6346C28.684 6.87536 22.394 0.585388 14.6347 0.585388ZM11.1956 20.4578H8.35059V11.3023H11.1956V20.4578ZM9.75552 10.1784C8.85695 10.1784 8.27595 9.54179 8.27595 8.75445C8.27595 7.951 8.87451 7.33342 9.7921 7.33342C10.7097 7.33342 11.2717 7.951 11.2892 8.75445C11.2892 9.54179 10.7097 10.1784 9.75552 10.1784ZM21.5862 20.4578H18.7412V15.3839C18.7412 14.2029 18.3285 13.4009 17.2997 13.4009C16.5138 13.4009 16.047 13.9439 15.8406 14.4663C15.7645 14.6522 15.7455 14.9156 15.7455 15.1776V20.4563H12.899V14.222C12.899 13.079 12.8625 12.1233 12.8244 11.3009H15.2962L15.4264 12.5726H15.4835C15.8582 11.9755 16.7758 11.0945 18.3109 11.0945C20.1827 11.0945 21.5862 12.3487 21.5862 15.0444V20.4578V20.4578Z" fill="#3D445C"/>
</g>
<defs>
<clipPath id="clip0_123_392">
<rect width="29.2693" height="29.2693" fill="white"/>
</clipPath>
</defs>
</svg>
