<svg width="30" height="30" viewBox="0 0 30 30" fill="none" xmlns="http://www.w3.org/2000/svg">
<g clip-path="url(#clip0_123_394)">
<path d="M14.6347 0.585388C6.87542 0.585388 0.585449 6.87536 0.585449 14.6346C0.585449 22.3939 6.87542 28.6839 14.6347 28.6839C22.394 28.6839 28.684 22.3939 28.684 14.6346C28.684 6.87536 22.394 0.585388 14.6347 0.585388ZM20.3495 12.0941C20.3554 12.2141 20.3569 12.3341 20.3569 12.4512C20.3569 16.1098 17.5748 20.3261 12.4849 20.3261C10.9809 20.3286 9.50814 19.8966 8.24376 19.0821C8.45889 19.1085 8.67987 19.1187 8.90378 19.1187C10.2004 19.1187 11.3931 18.6782 12.34 17.9348C11.763 17.9234 11.2039 17.7324 10.7406 17.3882C10.2773 17.044 9.93296 16.5639 9.75552 16.0147C10.1699 16.0935 10.5968 16.077 11.0039 15.9664C10.3776 15.8398 9.81435 15.5004 9.40971 15.0059C9.00508 14.5114 8.78393 13.8921 8.78378 13.2531V13.2195C9.15696 13.4258 9.58429 13.5517 10.038 13.5663C9.45082 13.1755 9.03518 12.5751 8.87604 11.8879C8.7169 11.2008 8.82629 10.4788 9.18184 9.86961C9.87692 10.7243 10.7437 11.4234 11.7262 11.9218C12.7086 12.4202 13.7848 12.7068 14.885 12.7629C14.7451 12.1692 14.8053 11.5459 15.0562 10.9899C15.3071 10.4339 15.7347 9.97642 16.2724 9.68852C16.8102 9.40062 17.428 9.29845 18.0298 9.39789C18.6316 9.49733 19.1837 9.79281 19.6002 10.2384C20.2195 10.1159 20.8134 9.88871 21.3564 9.56667C21.15 10.2079 20.7179 10.7523 20.1403 11.0989C20.6888 11.0328 21.2245 10.8854 21.7296 10.6613C21.3586 11.2173 20.8912 11.7025 20.3495 12.0941V12.0941Z" fill="#3D445C"/>
</g>
<defs>
<clipPath id="clip0_123_394">
<rect width="29.2693" height="29.2693" fill="white"/>
</clipPath>
</defs>
</svg>
